<mxfile host="app.diagrams.net" modified="2022-02-17T11:36:45.818Z" agent="5.0 (Macintosh; Intel Mac OS X 10_15_7) AppleWebKit/537.36 (KHTML, like Gecko) Chrome/98.0.4758.102 Safari/537.36" etag="sT_EXsi5WdZOCiVj7uC_" version="16.5.6" type="github">
  <diagram id="7xSU1VsMxAa6HMegwc-T" name="Page-1">
    <mxGraphModel dx="1004" dy="476" grid="1" gridSize="10" guides="1" tooltips="1" connect="1" arrows="1" fold="1" page="1" pageScale="1" pageWidth="827" pageHeight="1169" math="0" shadow="0">
      <root>
        <mxCell id="0" />
        <mxCell id="1" parent="0" />
        <mxCell id="pzt4fcJwZgWa0VNx7EeT-5" value="" style="rounded=0;whiteSpace=wrap;html=1;" parent="1" vertex="1">
          <mxGeometry x="30" y="330" width="200" height="90" as="geometry" />
        </mxCell>
        <mxCell id="pzt4fcJwZgWa0VNx7EeT-21" style="edgeStyle=orthogonalEdgeStyle;rounded=0;orthogonalLoop=1;jettySize=auto;html=1;exitX=0.5;exitY=0;exitDx=0;exitDy=0;entryX=0.5;entryY=1;entryDx=0;entryDy=0;fontSize=10;" parent="1" source="pzt4fcJwZgWa0VNx7EeT-11" target="pzt4fcJwZgWa0VNx7EeT-20" edge="1">
          <mxGeometry relative="1" as="geometry" />
        </mxCell>
        <mxCell id="pzt4fcJwZgWa0VNx7EeT-11" value="CP1" style="rounded=0;whiteSpace=wrap;html=1;" parent="1" vertex="1">
          <mxGeometry x="40" y="340" width="50" height="40" as="geometry" />
        </mxCell>
        <mxCell id="pzt4fcJwZgWa0VNx7EeT-23" style="edgeStyle=orthogonalEdgeStyle;rounded=0;orthogonalLoop=1;jettySize=auto;html=1;exitX=1;exitY=0;exitDx=0;exitDy=0;entryX=0.5;entryY=1;entryDx=0;entryDy=0;fontSize=10;" parent="1" source="pzt4fcJwZgWa0VNx7EeT-12" target="pzt4fcJwZgWa0VNx7EeT-20" edge="1">
          <mxGeometry relative="1" as="geometry">
            <Array as="points">
              <mxPoint x="135" y="340" />
            </Array>
          </mxGeometry>
        </mxCell>
        <mxCell id="pzt4fcJwZgWa0VNx7EeT-12" value="Worker1" style="rounded=0;whiteSpace=wrap;html=1;" parent="1" vertex="1">
          <mxGeometry x="100" y="340" width="50" height="40" as="geometry" />
        </mxCell>
        <mxCell id="pzt4fcJwZgWa0VNx7EeT-24" style="edgeStyle=orthogonalEdgeStyle;rounded=0;orthogonalLoop=1;jettySize=auto;html=1;exitX=0.5;exitY=0;exitDx=0;exitDy=0;entryX=0.5;entryY=1;entryDx=0;entryDy=0;fontSize=10;" parent="1" source="pzt4fcJwZgWa0VNx7EeT-13" target="pzt4fcJwZgWa0VNx7EeT-20" edge="1">
          <mxGeometry relative="1" as="geometry" />
        </mxCell>
        <mxCell id="pzt4fcJwZgWa0VNx7EeT-13" value="Worker2" style="rounded=0;whiteSpace=wrap;html=1;" parent="1" vertex="1">
          <mxGeometry x="160" y="340" width="50" height="40" as="geometry" />
        </mxCell>
        <mxCell id="pzt4fcJwZgWa0VNx7EeT-16" value="TKC-1" style="text;html=1;resizable=0;autosize=1;align=center;verticalAlign=middle;points=[];fillColor=none;strokeColor=none;rounded=0;" parent="1" vertex="1">
          <mxGeometry x="100" y="400" width="50" height="20" as="geometry" />
        </mxCell>
        <mxCell id="pzt4fcJwZgWa0VNx7EeT-17" value="&lt;font style=&quot;font-size: 9px&quot;&gt;10.246.0.34&lt;/font&gt;" style="text;html=1;resizable=0;autosize=1;align=center;verticalAlign=middle;points=[];fillColor=none;strokeColor=none;rounded=0;" parent="1" vertex="1">
          <mxGeometry x="35" y="380" width="60" height="20" as="geometry" />
        </mxCell>
        <mxCell id="pzt4fcJwZgWa0VNx7EeT-18" value="&lt;font style=&quot;font-size: 9px&quot;&gt;10.246.0.35&lt;/font&gt;" style="text;html=1;resizable=0;autosize=1;align=center;verticalAlign=middle;points=[];fillColor=none;strokeColor=none;rounded=0;" parent="1" vertex="1">
          <mxGeometry x="95" y="380" width="60" height="20" as="geometry" />
        </mxCell>
        <mxCell id="pzt4fcJwZgWa0VNx7EeT-19" value="&lt;font style=&quot;font-size: 9px&quot;&gt;10.246.0.36&lt;br&gt;&lt;/font&gt;" style="text;html=1;resizable=0;autosize=1;align=center;verticalAlign=middle;points=[];fillColor=none;strokeColor=none;rounded=0;" parent="1" vertex="1">
          <mxGeometry x="160" y="380" width="60" height="20" as="geometry" />
        </mxCell>
        <mxCell id="pzt4fcJwZgWa0VNx7EeT-20" value="&lt;font style=&quot;font-size: 10px&quot;&gt;Segment&amp;nbsp; --&amp;nbsp;&lt;span&gt;ns01-tkc-1-vnet-0&lt;/span&gt;&lt;/font&gt;" style="rounded=0;whiteSpace=wrap;html=1;fontSize=9;" parent="1" vertex="1">
          <mxGeometry x="40" y="270" width="190" height="20" as="geometry" />
        </mxCell>
        <mxCell id="5cx-T460i-CIB5v_bMIT-1" value="NS01-T1 Gateway" style="rounded=0;whiteSpace=wrap;html=1;" vertex="1" parent="1">
          <mxGeometry x="100" y="190" width="80" height="40" as="geometry" />
        </mxCell>
        <mxCell id="5cx-T460i-CIB5v_bMIT-3" value="" style="endArrow=classic;startArrow=classic;html=1;rounded=0;entryX=0.441;entryY=1.005;entryDx=0;entryDy=0;entryPerimeter=0;exitX=0.5;exitY=0;exitDx=0;exitDy=0;" edge="1" parent="1" source="pzt4fcJwZgWa0VNx7EeT-20" target="5cx-T460i-CIB5v_bMIT-1">
          <mxGeometry width="50" height="50" relative="1" as="geometry">
            <mxPoint x="340" y="320" as="sourcePoint" />
            <mxPoint x="390" y="270" as="targetPoint" />
          </mxGeometry>
        </mxCell>
        <mxCell id="5cx-T460i-CIB5v_bMIT-4" value="10.246.0.33" style="text;html=1;strokeColor=none;fillColor=none;align=center;verticalAlign=middle;whiteSpace=wrap;rounded=0;" vertex="1" parent="1">
          <mxGeometry x="110" y="240" width="130" height="10" as="geometry" />
        </mxCell>
        <mxCell id="5cx-T460i-CIB5v_bMIT-5" value="" style="endArrow=classic;startArrow=classic;html=1;rounded=0;entryX=0.441;entryY=1.005;entryDx=0;entryDy=0;entryPerimeter=0;exitX=0.5;exitY=0;exitDx=0;exitDy=0;" edge="1" parent="1">
          <mxGeometry width="50" height="50" relative="1" as="geometry">
            <mxPoint x="134.66" y="190" as="sourcePoint" />
            <mxPoint x="134.93999999999997" y="150.19999999999993" as="targetPoint" />
            <Array as="points">
              <mxPoint x="134.66" y="180" />
            </Array>
          </mxGeometry>
        </mxCell>
        <mxCell id="5cx-T460i-CIB5v_bMIT-6" value="100.64.240.6" style="text;html=1;strokeColor=none;fillColor=none;align=center;verticalAlign=middle;whiteSpace=wrap;rounded=0;" vertex="1" parent="1">
          <mxGeometry x="110" y="150" width="130" height="10" as="geometry" />
        </mxCell>
        <mxCell id="5cx-T460i-CIB5v_bMIT-7" value="Tier 0 Gateway" style="rounded=0;whiteSpace=wrap;html=1;" vertex="1" parent="1">
          <mxGeometry x="100" y="110" width="80" height="40" as="geometry" />
        </mxCell>
        <mxCell id="5cx-T460i-CIB5v_bMIT-8" value="100.64.240.7" style="text;html=1;strokeColor=none;fillColor=none;align=center;verticalAlign=middle;whiteSpace=wrap;rounded=0;" vertex="1" parent="1">
          <mxGeometry x="110" y="180" width="130" height="10" as="geometry" />
        </mxCell>
        <mxCell id="5cx-T460i-CIB5v_bMIT-9" value="" style="endArrow=classic;startArrow=classic;html=1;rounded=0;exitX=0.5;exitY=0;exitDx=0;exitDy=0;" edge="1" parent="1">
          <mxGeometry width="50" height="50" relative="1" as="geometry">
            <mxPoint x="109.31000000000009" y="110" as="sourcePoint" />
            <mxPoint x="40" y="40" as="targetPoint" />
            <Array as="points">
              <mxPoint x="109.31" y="100" />
              <mxPoint x="40" y="100" />
            </Array>
          </mxGeometry>
        </mxCell>
        <mxCell id="5cx-T460i-CIB5v_bMIT-10" value="" style="endArrow=classic;startArrow=classic;html=1;rounded=0;" edge="1" parent="1">
          <mxGeometry width="50" height="50" relative="1" as="geometry">
            <mxPoint x="119" y="110" as="sourcePoint" />
            <mxPoint x="119" y="40" as="targetPoint" />
            <Array as="points">
              <mxPoint x="119" y="60" />
            </Array>
          </mxGeometry>
        </mxCell>
        <mxCell id="5cx-T460i-CIB5v_bMIT-11" value="" style="endArrow=classic;startArrow=classic;html=1;rounded=0;" edge="1" parent="1">
          <mxGeometry width="50" height="50" relative="1" as="geometry">
            <mxPoint x="159.31" y="110" as="sourcePoint" />
            <mxPoint x="159.31" y="40" as="targetPoint" />
            <Array as="points">
              <mxPoint x="159.31" y="60" />
            </Array>
          </mxGeometry>
        </mxCell>
        <mxCell id="5cx-T460i-CIB5v_bMIT-12" value="" style="endArrow=classic;startArrow=classic;html=1;rounded=0;exitX=1;exitY=0;exitDx=0;exitDy=0;" edge="1" parent="1" source="5cx-T460i-CIB5v_bMIT-7">
          <mxGeometry width="50" height="50" relative="1" as="geometry">
            <mxPoint x="139" y="130" as="sourcePoint" />
            <mxPoint x="240" y="40" as="targetPoint" />
            <Array as="points">
              <mxPoint x="179" y="80" />
              <mxPoint x="240" y="80" />
            </Array>
          </mxGeometry>
        </mxCell>
        <mxCell id="5cx-T460i-CIB5v_bMIT-13" value="&lt;font style=&quot;font-size: 8px&quot;&gt;172.28.253.211&lt;/font&gt;" style="text;html=1;strokeColor=none;fillColor=none;align=center;verticalAlign=middle;whiteSpace=wrap;rounded=0;" vertex="1" parent="1">
          <mxGeometry x="10" y="10" width="60" height="30" as="geometry" />
        </mxCell>
        <mxCell id="5cx-T460i-CIB5v_bMIT-14" value="&lt;font style=&quot;font-size: 8px&quot;&gt;172.28.253.210&lt;/font&gt;" style="text;html=1;strokeColor=none;fillColor=none;align=center;verticalAlign=middle;whiteSpace=wrap;rounded=0;" vertex="1" parent="1">
          <mxGeometry x="80" y="10" width="60" height="30" as="geometry" />
        </mxCell>
        <mxCell id="5cx-T460i-CIB5v_bMIT-15" value="&lt;font style=&quot;font-size: 8px&quot;&gt;172.28.253.226&lt;/font&gt;" style="text;html=1;strokeColor=none;fillColor=none;align=center;verticalAlign=middle;whiteSpace=wrap;rounded=0;" vertex="1" parent="1">
          <mxGeometry x="145" y="10" width="60" height="30" as="geometry" />
        </mxCell>
        <mxCell id="5cx-T460i-CIB5v_bMIT-16" value="&lt;font style=&quot;font-size: 8px&quot;&gt;172.28.253.227&lt;/font&gt;" style="text;html=1;strokeColor=none;fillColor=none;align=center;verticalAlign=middle;whiteSpace=wrap;rounded=0;" vertex="1" parent="1">
          <mxGeometry x="220" y="10" width="60" height="30" as="geometry" />
        </mxCell>
        <mxCell id="5cx-T460i-CIB5v_bMIT-20" value="" style="rounded=0;whiteSpace=wrap;html=1;fontSize=8;" vertex="1" parent="1">
          <mxGeometry x="720" y="230" width="90" height="200" as="geometry" />
        </mxCell>
        <mxCell id="5cx-T460i-CIB5v_bMIT-17" value="Supervisor CP VM1&lt;br&gt;101" style="rounded=0;whiteSpace=wrap;html=1;fontSize=8;" vertex="1" parent="1">
          <mxGeometry x="730" y="280" width="70" height="40" as="geometry" />
        </mxCell>
        <mxCell id="5cx-T460i-CIB5v_bMIT-18" value="Supervisor CP VM2&lt;br&gt;.102" style="rounded=0;whiteSpace=wrap;html=1;fontSize=8;" vertex="1" parent="1">
          <mxGeometry x="730" y="330" width="70" height="40" as="geometry" />
        </mxCell>
        <mxCell id="5cx-T460i-CIB5v_bMIT-19" value="Supervisor CP VM3&lt;br&gt;103" style="rounded=0;whiteSpace=wrap;html=1;fontSize=8;" vertex="1" parent="1">
          <mxGeometry x="730" y="380" width="70" height="40" as="geometry" />
        </mxCell>
        <mxCell id="5cx-T460i-CIB5v_bMIT-21" value="Control Plane LB - .100" style="text;html=1;strokeColor=none;fillColor=none;align=center;verticalAlign=middle;whiteSpace=wrap;rounded=0;fontSize=8;" vertex="1" parent="1">
          <mxGeometry x="735" y="240" width="60" height="30" as="geometry" />
        </mxCell>
        <mxCell id="5cx-T460i-CIB5v_bMIT-24" style="edgeStyle=orthogonalEdgeStyle;rounded=0;orthogonalLoop=1;jettySize=auto;html=1;exitX=1;exitY=0.5;exitDx=0;exitDy=0;fontSize=8;" edge="1" parent="1" source="5cx-T460i-CIB5v_bMIT-22" target="5cx-T460i-CIB5v_bMIT-17">
          <mxGeometry relative="1" as="geometry" />
        </mxCell>
        <mxCell id="5cx-T460i-CIB5v_bMIT-22" value="&lt;font style=&quot;font-size: 10px&quot;&gt;Segment&amp;nbsp; -- mgmt-app-network&lt;/font&gt;" style="rounded=0;whiteSpace=wrap;html=1;fontSize=9;" vertex="1" parent="1">
          <mxGeometry x="520" y="320" width="150" height="20" as="geometry" />
        </mxCell>
        <mxCell id="5cx-T460i-CIB5v_bMIT-23" value="" style="endArrow=classic;startArrow=classic;html=1;rounded=0;fontSize=8;entryX=0;entryY=0.5;entryDx=0;entryDy=0;" edge="1" parent="1" target="5cx-T460i-CIB5v_bMIT-18">
          <mxGeometry width="50" height="50" relative="1" as="geometry">
            <mxPoint x="670" y="330" as="sourcePoint" />
            <mxPoint x="470" y="220" as="targetPoint" />
            <Array as="points">
              <mxPoint x="700" y="330" />
              <mxPoint x="700" y="350" />
            </Array>
          </mxGeometry>
        </mxCell>
        <mxCell id="5cx-T460i-CIB5v_bMIT-26" value="" style="endArrow=classic;startArrow=classic;html=1;rounded=0;fontSize=8;exitX=0;exitY=0.5;exitDx=0;exitDy=0;" edge="1" parent="1" source="5cx-T460i-CIB5v_bMIT-19">
          <mxGeometry width="50" height="50" relative="1" as="geometry">
            <mxPoint x="420" y="270" as="sourcePoint" />
            <mxPoint x="670" y="330" as="targetPoint" />
            <Array as="points">
              <mxPoint x="700" y="400" />
              <mxPoint x="700" y="330" />
            </Array>
          </mxGeometry>
        </mxCell>
        <mxCell id="5cx-T460i-CIB5v_bMIT-27" value="Logical Switch - Bridged to VLAN Network" style="rounded=0;whiteSpace=wrap;html=1;fontSize=8;" vertex="1" parent="1">
          <mxGeometry x="390" y="320" width="100" height="20" as="geometry" />
        </mxCell>
        <mxCell id="5cx-T460i-CIB5v_bMIT-28" value="" style="endArrow=classic;startArrow=classic;html=1;rounded=0;fontSize=8;exitX=1;exitY=0.5;exitDx=0;exitDy=0;entryX=0;entryY=0.5;entryDx=0;entryDy=0;" edge="1" parent="1" source="5cx-T460i-CIB5v_bMIT-27" target="5cx-T460i-CIB5v_bMIT-22">
          <mxGeometry width="50" height="50" relative="1" as="geometry">
            <mxPoint x="470" y="260" as="sourcePoint" />
            <mxPoint x="520" y="210" as="targetPoint" />
          </mxGeometry>
        </mxCell>
      </root>
    </mxGraphModel>
  </diagram>
</mxfile>
